<svg width="198" height="58" viewBox="0 0 198 58" fill="none" xmlns="http://www.w3.org/2000/svg">
<g clip-path="url(#clip0_3885_17538)">
<path d="M35.3004 7.27953C41.208 20.1369 47.1632 32.9943 53.1185 45.9462C53.309 45.7571 53.452 45.6153 53.5949 45.4735C55.3576 42.8264 56.644 40.0375 57.5015 36.9649C58.2638 34.2706 58.6449 31.5289 58.5496 28.7873C58.4067 22.4531 56.4058 16.6862 52.5468 11.6284C50.2599 8.60309 47.4491 6.14506 44.2094 4.207C41.6844 2.69436 38.9688 1.51262 36.015 0.898113C35.5386 0.803574 35.0622 0.709034 34.5857 0.614495C34.2522 0.519955 34.0617 0.661764 33.9187 0.945383C32.6801 3.35614 31.4414 5.7669 30.2027 8.22493C28.0588 12.4319 25.9149 16.5917 23.8186 20.7987C22.1988 23.9658 20.579 27.1801 18.9592 30.3472C17.0535 34.0815 15.1478 37.8631 13.1945 41.5974C11.8129 44.339 10.4313 47.0807 9.002 49.8223C8.76379 50.295 8.81143 50.5786 9.24021 50.9095C10.0978 51.5713 10.9553 52.2803 11.7652 52.9421C12.0511 53.1785 12.194 53.1312 12.3846 52.8003C13.7662 50.0587 15.1002 47.317 16.4818 44.5754C18.3875 40.7465 20.3408 36.8704 22.2465 33.0416C24.1521 29.1654 26.1055 25.3366 28.0111 21.4605C30.0597 17.3953 32.1084 13.3301 34.1093 9.21759C34.4428 8.55582 34.7287 7.94131 35.0622 7.27953C35.2051 7.27953 35.2527 7.27953 35.3004 7.27953Z" fill="#262626"/>
<path d="M5.43095 46.088C5.81209 45.379 6.14558 44.7172 6.52672 44.0082C9.09939 38.903 11.6721 33.7979 14.2447 28.74C16.4839 24.2967 18.6754 19.8533 20.9146 15.41C23.1538 10.9193 25.4406 6.42871 27.6798 1.89082C27.918 1.46539 28.1562 0.992691 28.3467 0.567263C28.5373 0.141835 28.442 -0.0472436 27.9656 0.0472959C26.2029 0.283645 24.3925 0.425454 22.6297 0.803612C18.0084 1.79628 13.9589 3.87615 10.3381 6.85414C6.71729 9.83214 4.00169 13.5192 2.14366 17.8207C1.04789 20.3733 0.333263 23.0204 -0.000230551 25.762C-0.286082 28.551 -0.286082 31.2926 0.190337 34.0815C0.809683 37.7686 2.09602 41.172 4.00169 44.3391C4.28755 44.859 4.62104 45.3317 4.95453 45.8044C5.04982 45.9462 5.09746 46.088 5.1451 46.2299C5.28803 46.1826 5.38331 46.1353 5.43095 46.088Z" fill="#262626"/>
<path d="M48.1699 49.4914C46.7883 46.5134 45.4067 43.4882 44.0251 40.4629H24.5395C23.3961 42.7318 22.205 45.0008 21.1093 47.317C19.8706 49.8223 18.7272 52.3749 17.5361 54.9274C17.2026 55.6365 17.2979 55.731 18.0126 55.9674C19.5371 56.4401 21.014 57.0073 22.5862 57.3382C25.4447 58 28.3509 58.1891 31.3047 57.8582C32.6386 57.7164 33.9726 57.6218 35.2589 57.2909C37.1646 56.771 39.0703 56.1092 40.9283 55.3056C43.5486 54.1711 45.8355 52.5167 47.9317 50.6732C48.2652 50.2477 48.4081 50.0114 48.1699 49.4914Z" fill="#C2C2C4"/>
<path d="M41.6386 35.216C40.5905 32.8525 39.4947 30.5363 38.4466 28.1728C37.3509 25.8093 36.3027 23.4931 35.207 21.1296C35.1117 20.8933 34.9688 20.6569 34.7782 20.326C34.3018 21.2242 33.9206 21.9805 33.5395 22.7368C33.1584 23.4931 32.7772 24.2967 32.3485 25.053C30.6333 28.4564 28.9182 31.8599 27.2031 35.216H41.6386Z" fill="#CA0100"/>
<path d="M79.7537 14.7946C80.7065 14.7946 81.2782 15.0782 81.85 16.1654L87.9005 27.0847C88.0434 27.321 87.9958 27.5101 87.6623 27.5101H85.3278C85.0896 27.5101 84.9943 27.4629 84.899 27.2738L83.6127 24.9103H74.9895L73.7032 27.2738C73.6079 27.4629 73.5126 27.5101 73.2744 27.5101H70.8923C70.5588 27.5101 70.5112 27.321 70.6541 27.0847L76.657 16.1654C77.2763 15.0782 77.8004 14.7946 78.5627 14.7946H79.7537ZM76.1806 22.8304H82.4693L79.5631 17.4889C79.5155 17.3944 79.4679 17.3471 79.3726 17.3471H79.2773C79.182 17.3471 79.1344 17.3944 79.0867 17.4889L76.1806 22.8304Z" fill="#262626"/>
<path d="M100.57 14.7954C103.095 14.7954 104.048 15.7881 104.048 17.7734V18.6243C104.048 19.6642 103.667 20.4205 102.857 20.9405C103.714 21.4132 104.143 22.2168 104.143 23.304V24.3439C104.143 26.282 103.333 27.511 100.904 27.511H89.9936C89.6124 27.511 89.4219 27.3219 89.4219 26.9438V15.3154C89.4219 14.9372 89.6124 14.7482 89.9936 14.7482H100.57V14.7954ZM92.2804 20.0897H99.8078C100.999 20.0897 101.38 19.7115 101.38 19.0024V18.3879C101.38 17.6316 100.999 17.3007 100.046 17.3007H92.5662C92.4233 17.3007 92.328 17.3953 92.328 17.5371L92.2804 20.0897ZM92.2804 22.075V24.7694C92.2804 24.9112 92.3757 25.0057 92.5186 25.0057H100.046C100.999 25.0057 101.38 24.6748 101.38 23.9185V23.2095C101.38 22.4531 100.999 22.075 99.8078 22.075H92.2804Z" fill="#262626"/>
<path d="M119.536 14.7954C119.822 14.7954 119.917 14.9372 119.917 15.1736V16.9698C119.917 17.2535 119.774 17.3953 119.536 17.3953H111.389C109.483 17.3953 108.959 17.9625 108.959 19.8533V22.4531C108.959 24.3912 109.531 24.9584 111.389 24.9584H119.536C119.822 24.9584 119.917 25.1002 119.917 25.3366V27.1328C119.917 27.4165 119.774 27.511 119.536 27.511H111.294C107.578 27.511 106.148 26.1875 106.148 22.6895V19.5697C106.148 16.0717 107.578 14.7482 111.294 14.7482L119.536 14.7954Z" fill="#262626"/>
<path d="M136.207 14.7954C137.16 14.7954 137.731 15.079 138.303 16.1662L144.354 27.0855C144.497 27.3219 144.449 27.511 144.115 27.511H141.781C141.543 27.511 141.447 27.4637 141.352 27.2746L140.066 24.9111H131.443L130.156 27.2746C130.061 27.4637 129.966 27.511 129.728 27.511H127.345C127.012 27.511 126.964 27.3219 127.107 27.0855L133.205 16.2135C133.825 15.1263 134.349 14.8427 135.111 14.8427H136.207V14.7954ZM132.634 22.8313H138.922L136.016 17.4898C135.969 17.3952 135.921 17.348 135.826 17.348H135.73C135.635 17.348 135.588 17.3952 135.54 17.4898L132.634 22.8313Z" fill="#262626"/>
<path d="M147.548 14.7954C147.834 14.7954 147.929 14.9372 147.929 15.1736V22.4531C147.929 24.3912 148.501 24.9584 150.359 24.9584H155.456C157.362 24.9584 157.886 24.3912 157.886 22.4531V15.1736C157.886 14.8899 158.029 14.7954 158.267 14.7954H160.268C160.554 14.7954 160.649 14.9372 160.649 15.1736V22.6895C160.649 26.1874 159.22 27.511 155.504 27.511H150.216C146.5 27.511 145.07 26.1874 145.07 22.6895V15.1736C145.07 14.8899 145.213 14.7954 145.499 14.7954H147.548Z" fill="#262626"/>
<path d="M177.042 14.7954C177.328 14.7954 177.47 14.9372 177.47 15.1736V16.9698C177.47 17.2534 177.328 17.3952 177.042 17.3952H171.277V27.1328C171.277 27.4164 171.134 27.511 170.896 27.511H168.895C168.609 27.511 168.514 27.3692 168.514 27.1328V17.3952H162.749C162.463 17.3952 162.32 17.2534 162.32 16.9698V15.1736C162.32 14.8899 162.463 14.7954 162.749 14.7954H177.042Z" fill="#262626"/>
<path d="M189.377 14.7954C193.093 14.7954 194.523 16.119 194.523 19.6169V22.7367C194.523 26.2347 193.093 27.5582 189.377 27.5582H183.708C179.992 27.5582 178.562 26.2347 178.562 22.7367V19.6169C178.562 16.119 179.992 14.7954 183.708 14.7954H189.377ZM181.373 22.5477C181.373 24.4384 181.945 25.0057 183.803 25.0057H189.234C191.14 25.0057 191.664 24.4384 191.664 22.5477V19.806C191.664 17.9152 191.092 17.348 189.234 17.348H183.803C181.897 17.348 181.373 17.9152 181.373 19.806V22.5477Z" fill="#262626"/>
<path d="M76.1829 35.8778C77.9456 35.8778 78.565 36.4923 78.565 38.1468V39.6121C78.565 41.2666 77.898 41.8811 76.1829 41.8811H73.5149C71.7998 41.8811 71.1328 41.2666 71.1328 39.6121V38.1468C71.1328 36.4923 71.7998 35.8778 73.5149 35.8778H76.1829ZM72.4668 39.5176C72.4668 40.4157 72.705 40.6521 73.6102 40.6521H76.1352C77.0404 40.6521 77.2786 40.3684 77.2786 39.5176V38.2413C77.2786 37.3432 77.0404 37.1068 76.1352 37.1068H73.6102C72.705 37.1068 72.4668 37.3904 72.4668 38.2413V39.5176Z" fill="#737373"/>
<path d="M83.755 35.4524C83.8979 35.4524 83.9456 35.4997 83.9456 35.6415V37.1541H85.0413C86.5659 37.1541 87.0899 37.6268 87.0899 38.9031V40.1321C87.0899 41.3611 86.6135 41.8338 85.0413 41.8338H83.9456V43.5355C83.9456 43.6773 83.8979 43.7246 83.755 43.7246H82.8974C82.7545 43.7246 82.7069 43.6773 82.7069 43.5355V41.8338H81.6111C80.0866 41.8338 79.5625 41.3611 79.5625 40.1321V38.9031C79.5625 37.6741 80.0389 37.1541 81.6111 37.1541H82.7069V35.6415C82.7069 35.4997 82.7545 35.4524 82.8974 35.4524H83.755ZM80.8012 39.943C80.8012 40.6521 80.9918 40.8884 81.754 40.8884H82.7545V38.194H81.754C81.0394 38.194 80.8012 38.4304 80.8012 39.1394V39.943ZM83.9456 38.194V40.8884H84.946C85.7083 40.8884 85.8989 40.6521 85.8989 39.943V39.1394C85.8989 38.4304 85.7083 38.194 84.946 38.194H83.9456Z" fill="#737373"/>
<path d="M89.095 37.2014C89.2379 37.2014 89.2856 37.2487 89.2856 37.3905V40.6521C89.2856 40.6994 89.3332 40.7466 89.3332 40.7466H89.4285C89.4761 40.7466 89.5238 40.7466 89.5238 40.6994L92.0964 37.7214C92.3823 37.3432 92.5729 37.2014 93.1446 37.2014H93.621C94.145 37.2014 94.3833 37.3905 94.3833 38.0995V41.692C94.3833 41.8339 94.3356 41.8811 94.1927 41.8811H93.3351C93.1922 41.8811 93.1446 41.8339 93.1446 41.692V38.4304C93.1446 38.3832 93.1446 38.3359 93.0969 38.3359H93.0016C92.954 38.3359 92.9064 38.3359 92.9064 38.3832L90.3337 41.3612C90.0002 41.7393 89.8573 41.8811 89.2856 41.8811H88.8091C88.2851 41.8811 88.0469 41.692 88.0469 40.983V37.3905C88.0469 37.2487 88.0945 37.2014 88.2374 37.2014H89.095Z" fill="#737373"/>
<path d="M96.5239 37.2014C96.6668 37.2014 96.7145 37.2487 96.7145 37.3905V40.6994C96.7145 40.8412 96.7621 40.8885 96.9051 40.8885H100.621V37.4378C100.621 37.296 100.669 37.2487 100.812 37.2487H101.669C101.812 37.2487 101.86 37.296 101.86 37.4378V40.8885H103.003C103.146 40.8885 103.194 40.9357 103.194 41.0775V43.2992C103.194 43.441 103.146 43.4883 103.003 43.4883H102.336C102.193 43.4883 102.146 43.441 102.146 43.2992V41.8811H96.3334C95.7616 41.8811 95.5234 41.6448 95.5234 41.1721V37.4378C95.5234 37.296 95.5711 37.2487 95.714 37.2487L96.5239 37.2014Z" fill="#737373"/>
<path d="M104.961 37.2014C105.104 37.2014 105.152 37.2487 105.152 37.3905V40.6521C105.152 40.6994 105.2 40.7466 105.2 40.7466H105.295C105.343 40.7466 105.39 40.7466 105.39 40.6994L107.963 37.7214C108.249 37.3432 108.439 37.2014 109.011 37.2014H109.487C110.011 37.2014 110.25 37.3905 110.25 38.0995V41.692C110.25 41.8339 110.202 41.8811 110.059 41.8811H109.202C109.059 41.8811 109.011 41.8339 109.011 41.692V38.4304C109.011 38.3832 109.011 38.3359 108.963 38.3359H108.916C108.868 38.3359 108.82 38.3359 108.82 38.3832L106.248 41.3612C105.914 41.7393 105.771 41.8811 105.2 41.8811H104.723C104.199 41.8811 103.961 41.692 103.961 40.983V37.3905C103.961 37.2487 104.009 37.2014 104.152 37.2014H104.961Z" fill="#737373"/>
<path d="M115.15 37.2014C116.675 37.2014 117.199 37.6741 117.199 38.9504V41.2193C117.199 41.7866 117.056 41.8811 116.58 41.8811H112.482C111.482 41.8811 111.148 41.503 111.148 40.6521V40.2267C111.148 39.5176 111.434 39.0922 112.482 39.0922H115.96V38.9504C115.96 38.3832 115.77 38.1941 115.007 38.1941H111.434C111.339 38.1941 111.291 38.1468 111.291 38.0523V37.3432C111.291 37.2487 111.339 37.2014 111.434 37.2014H115.15ZM115.96 40.6048V39.8485H112.816C112.482 39.8485 112.339 39.9903 112.339 40.274V40.463C112.339 40.7466 112.482 40.8885 112.816 40.8885H115.722C115.913 40.9357 115.96 40.8412 115.96 40.6048Z" fill="#737373"/>
<path d="M123.348 37.2014C123.872 37.2014 124.062 37.4378 124.062 37.8632V41.6448C124.062 41.7866 124.015 41.8339 123.872 41.8339H123.014C122.871 41.8339 122.823 41.7866 122.823 41.6448V38.3832C122.823 38.2886 122.776 38.2414 122.681 38.2414H120.823C120.632 38.2414 120.632 38.3359 120.584 38.4305C120.489 38.9032 120.346 40.274 120.013 41.0303C119.774 41.5503 119.489 41.8339 118.774 41.8339H117.964C117.869 41.8339 117.773 41.7866 117.773 41.6448V41.0303C117.773 40.8885 117.821 40.8412 117.964 40.8412H118.583C118.822 40.8412 119.012 40.7939 119.203 40.3213C119.393 39.8486 119.536 38.9977 119.679 37.7214C119.727 37.3905 119.87 37.1542 120.394 37.1542H123.348V37.2014Z" fill="#737373"/>
<path d="M126.157 37.2014C126.3 37.2014 126.348 37.2487 126.348 37.3905V38.6195H129.588C130.779 38.6195 131.255 39.0922 131.255 39.9431V40.5103C131.255 41.4084 130.779 41.8339 129.588 41.8339H125.348C125.205 41.8339 125.109 41.7393 125.109 41.5975V37.3905C125.109 37.2487 125.157 37.2014 125.3 37.2014H126.157ZM126.348 39.5176V40.7939C126.348 40.8412 126.396 40.8885 126.443 40.8885H129.349C129.874 40.8885 130.064 40.6994 130.064 40.3685V40.0376C130.064 39.6594 129.874 39.5176 129.349 39.5176H126.348Z" fill="#737373"/>
<path d="M133.259 37.2014C133.402 37.2014 133.45 37.2487 133.45 37.3905V38.9977H137.356V37.3905C137.356 37.2487 137.404 37.2014 137.547 37.2014H138.404C138.547 37.2014 138.595 37.2487 138.595 37.3905V41.692C138.595 41.8339 138.547 41.8811 138.404 41.8811H137.547C137.404 41.8811 137.356 41.8339 137.356 41.692V39.9903H133.45V41.692C133.45 41.8339 133.402 41.8811 133.259 41.8811H132.402C132.259 41.8811 132.211 41.8339 132.211 41.692V37.3905C132.211 37.2487 132.259 37.2014 132.402 37.2014H133.259Z" fill="#737373"/>
<path d="M140.689 37.2014C140.832 37.2014 140.879 37.2487 140.879 37.3905V38.6195H144.119C145.31 38.6195 145.786 39.0922 145.786 39.9431V40.5103C145.786 41.4084 145.31 41.8339 144.119 41.8339H139.879C139.736 41.8339 139.641 41.7393 139.641 41.5975V37.3905C139.641 37.2487 139.688 37.2014 139.831 37.2014H140.689ZM140.879 39.5176V40.7939C140.879 40.8412 140.927 40.8885 140.975 40.8885H143.881C144.405 40.8885 144.595 40.6994 144.595 40.3685V40.0376C144.595 39.6594 144.405 39.5176 143.881 39.5176H140.879ZM147.502 37.2014C147.644 37.2014 147.692 37.2487 147.692 37.3905V41.692C147.692 41.8339 147.644 41.8811 147.502 41.8811H146.644C146.501 41.8811 146.453 41.8339 146.453 41.692V37.3905C146.453 37.2487 146.501 37.2014 146.644 37.2014H147.502Z" fill="#737373"/>
<path d="M149.79 37.2014C149.933 37.2014 149.981 37.2486 149.981 37.3904V40.6521C149.981 40.6993 150.029 40.7466 150.029 40.7466H150.124C150.171 40.7466 150.219 40.7466 150.219 40.6993L152.792 37.7213C153.078 37.3432 153.268 37.2014 153.84 37.2014H154.316C154.84 37.2014 155.079 37.3904 155.079 38.0995V41.692C155.079 41.8338 155.031 41.8811 154.888 41.8811H154.03C153.887 41.8811 153.84 41.8338 153.84 41.692V38.4304C153.84 38.3831 153.84 38.3358 153.792 38.3358H153.697C153.649 38.3358 153.602 38.3358 153.602 38.3831L151.029 41.3611C150.695 41.7393 150.553 41.8811 149.981 41.8811H149.504C148.98 41.8811 148.742 41.692 148.742 40.9829V37.3904C148.742 37.2486 148.79 37.2014 148.933 37.2014H149.79ZM149.886 35.2633C149.886 35.1688 149.933 35.0742 150.029 35.0742C150.076 35.0742 150.171 35.1215 150.267 35.1688C150.457 35.3106 151.077 35.8305 151.934 35.8305C152.792 35.8305 153.411 35.3106 153.602 35.1688C153.697 35.1215 153.745 35.0742 153.792 35.0742C153.887 35.0742 153.935 35.1688 153.935 35.2633V35.6887C153.935 35.8305 153.935 35.9251 153.792 36.0196C153.506 36.256 152.696 36.6341 151.887 36.6341C151.077 36.6341 150.314 36.3032 149.981 36.0196C149.838 35.8778 149.79 35.7833 149.79 35.6887V35.2633H149.886Z" fill="#737373"/>
<path d="M164.467 37.2014C164.991 37.2014 165.182 37.4378 165.182 37.8632V40.8412H166.325C166.468 40.8412 166.516 40.8885 166.516 41.0303V43.252C166.516 43.3938 166.468 43.4411 166.325 43.4411H165.61C165.468 43.4411 165.42 43.3938 165.42 43.252V41.8339H159.798V43.252C159.798 43.3938 159.75 43.4411 159.608 43.4411H158.941C158.798 43.4411 158.75 43.3938 158.75 43.252V41.0303C158.75 40.8885 158.798 40.8412 158.941 40.8412H159.655C159.893 40.8412 160.084 40.7939 160.275 40.3213C160.465 39.8486 160.608 38.9977 160.751 37.7214C160.799 37.3905 160.942 37.1542 161.466 37.1542H164.467V37.2014ZM163.943 40.8412V38.3832C163.943 38.2886 163.895 38.2414 163.8 38.2414H161.942C161.751 38.2414 161.751 38.3359 161.704 38.4305C161.656 38.9032 161.466 40.0376 161.227 40.8412H163.943Z" fill="#737373"/>
<path d="M168.275 37.2014C168.418 37.2014 168.465 37.2487 168.465 37.3905V40.6521C168.465 40.6994 168.513 40.7466 168.513 40.7466H168.608C168.656 40.7466 168.703 40.7466 168.703 40.6994L171.276 37.7214C171.562 37.3432 171.753 37.2014 172.324 37.2014H172.801C173.325 37.2014 173.563 37.3905 173.563 38.0995V41.692C173.563 41.8339 173.515 41.8811 173.372 41.8811H172.515C172.372 41.8811 172.324 41.8339 172.324 41.692V38.4304C172.324 38.3832 172.324 38.3359 172.277 38.3359H172.181C172.134 38.3359 172.086 38.3359 172.086 38.3832L169.513 41.3612C169.18 41.7393 169.037 41.8811 168.465 41.8811H167.989C167.465 41.8811 167.227 41.692 167.227 40.983V37.3905C167.227 37.2487 167.274 37.2014 167.417 37.2014H168.275Z" fill="#737373"/>
<path d="M179.855 37.2014C180.379 37.2014 180.57 37.4378 180.57 37.8632V41.6448C180.57 41.7866 180.522 41.8339 180.379 41.8339H179.522C179.379 41.8339 179.331 41.7866 179.331 41.6448V38.3832C179.331 38.2886 179.284 38.2414 179.188 38.2414H177.33C177.14 38.2414 177.14 38.3359 177.092 38.4305C176.997 38.9032 176.854 40.274 176.52 41.0303C176.282 41.5503 175.996 41.8339 175.282 41.8339H174.472C174.377 41.8339 174.281 41.7866 174.281 41.6448V41.0303C174.281 40.8885 174.329 40.8412 174.472 40.8412H175.091C175.329 40.8412 175.52 40.7939 175.711 40.3213C175.901 39.8486 176.044 38.9977 176.187 37.7214C176.235 37.3905 176.378 37.1542 176.902 37.1542H179.855V37.2014Z" fill="#737373"/>
<path d="M186.042 37.2014C187.233 37.2014 187.519 37.5796 187.519 38.6195V39.4231C187.519 39.8013 187.376 39.8958 187.043 39.8958H182.707V40.0849C182.707 40.6049 182.898 40.8412 183.66 40.8412H187.233C187.329 40.8412 187.376 40.8885 187.376 40.983V41.6921C187.376 41.7866 187.329 41.8339 187.233 41.8339H183.517C181.993 41.8339 181.469 41.3612 181.469 40.1322V38.9032C181.469 37.6741 181.945 37.1542 183.517 37.1542L186.042 37.2014ZM182.707 39.0922H186.185C186.281 39.0922 186.328 39.045 186.328 38.9504V38.5723C186.328 38.2414 186.185 38.0996 185.804 38.0996H183.66C182.898 38.0996 182.707 38.3359 182.707 38.8559V39.0922Z" fill="#737373"/>
<path d="M192.861 37.2014C194.386 37.2014 194.91 37.6741 194.91 38.9504V40.1794C194.91 41.4085 194.433 41.8812 192.861 41.8812H189.622V43.5829C189.622 43.7247 189.574 43.7719 189.431 43.7719H188.573C188.43 43.7719 188.383 43.7247 188.383 43.5829V38.9032C188.383 37.6741 188.859 37.1542 190.431 37.1542L192.861 37.2014ZM189.622 40.8412H192.718C193.481 40.8412 193.671 40.6049 193.671 39.8958V39.1395C193.671 38.4305 193.481 38.1941 192.718 38.1941H190.574C189.86 38.1941 189.622 38.4305 189.622 39.1395V40.8412Z" fill="#737373"/>
</g>
<defs>
<clipPath id="clip0_3885_17538">
<rect width="198" height="58" fill="white"/>
</clipPath>
</defs>
</svg>
