<svg width="13" height="17" viewBox="0 0 13 17" fill="none" xmlns="http://www.w3.org/2000/svg">
<path d="M7.96667 13.9063C7.96667 15.0201 8.86956 15.923 9.98333 15.923V15.923C11.0971 15.923 12 15.0201 12 13.9063V9.05697C12 7.9432 11.0971 7.04031 9.98333 7.04031V7.04031C8.86956 7.04031 7.96667 7.9432 7.96667 9.05697V13.9063Z" stroke="#737373" stroke-width="2" stroke-linecap="round" stroke-linejoin="round"/>
<path d="M1 13.9063C1 15.0201 1.90289 15.923 3.01667 15.923V15.923C4.13044 15.923 5.03333 15.0201 5.03333 13.9063V3.98114C5.03333 2.86737 4.13044 1.96448 3.01667 1.96448V1.96448C1.90289 1.96448 1 2.86737 1 3.98114V13.9063Z" stroke="#737373" stroke-width="2" stroke-linecap="round" stroke-linejoin="round"/>
</svg>
